<?xml version="1.0" encoding="UTF-8" standalone="no"?>
<!-- Created with Inkscape (http://www.inkscape.org/) -->

<svg
   xmlns:svg="http://www.w3.org/2000/svg"
   xmlns="http://www.w3.org/2000/svg"
   version="1.1"
   width="180"
   height="172"
   id="svg2"
   style="display:inline">
  <defs
     id="defs4" />
  <g
     id="layer4"
     style="display:inline">
    <path
       d="M 73.0625,1.25 C 69.405909,1.4123426 65.307878,3.1077479 59.96875,6.6875 54.682048,10.232102 49.49298,14.319455 43.8125,17.40625 36.380271,21.44495 28.240716,21.185356 21.375,22.25 21.928851,36.342823 20.898902,53.620114 26.65625,67.0625 L 20.875,89.46875 c -2.464247,48.80681 30.646939,81.92534 69.125,82.09375 38.47806,-0.16841 71.58925,-33.28694 69.125,-82.09375 L 153.34375,67.0625 C 159.1011,53.620114 158.07115,36.342823 158.625,22.25 151.75928,21.185356 143.61973,21.44495 136.1875,17.40625 130.50702,14.319455 125.31795,10.232102 120.03125,6.6875 114.69212,3.1077479 110.59409,1.4123426 106.9375,1.25 102.23617,1.0412738 98.273819,3.3674765 93.375,7.53125 l 0.1875,9 c 5.591119,6.731747 20.32104,8.840805 31.875,14.0625 0.94304,18.034062 -5.31308,33.887391 -9.75,38.78125 -4.15893,5.854716 -6.71512,13.535046 -3.15625,20.125 6.79687,8.093351 15.2002,-0.717999 14.90625,0.53125 5.87445,36.43477 -22.37748,52.5 -37.4375,52.5 -15.060018,0 -43.311953,-16.06523 -37.4375,-52.5 C 52.26855,88.782001 60.671881,97.593351 67.46875,89.5 71.027617,82.910046 68.471434,75.229716 64.3125,69.375 59.87558,64.481141 53.619461,48.627812 54.5625,30.59375 66.116456,25.372055 80.846379,23.262997 86.4375,16.53125 l 0.1875,-9 C 81.726181,3.3674765 77.763831,1.0412738 73.0625,1.25 z"
       id="path4736-6"
       style="color:#000000;fill:#e4e4e4;fill-opacity:1;stroke:none;stroke-width:0.89999998;marker:none;visibility:visible;display:inline;overflow:visible;enable-background:accumulate" />
    <path
       d="M 73.71875,4.125 C 73.31953,4.13217 72.904757,4.16953 72.5,4.1875 69.718834,4.3109761 66.849576,5.9246115 61.75,9.34375 57.409092,12.254221 52.958108,15.504352 48.28125,18.21875 35.60394,25.576525 29.187682,22.743402 24.625,24 c 0.360993,13.379878 -0.05963,30.07212 4.96875,41.8125 0.270838,0.635982 0.326634,1.361328 0.15625,2.03125 l -5.6875,22.0625 c -2.179752,45.75238 29.359405,78.875 65.9375,78.875 36.5781,0 68.11725,-33.12262 65.9375,-78.875 L 150.25,67.84375 c -0.17038,-0.669922 -0.11459,-1.395268 0.15625,-2.03125 C 155.4346,54.07212 155.01401,37.379878 155.375,24 150.81232,22.743402 144.39606,25.576525 131.71875,18.21875 127.04189,15.504352 122.59091,12.254221 118.25,9.34375 113.15042,5.9246115 110.28116,4.3109761 107.5,4.1875 104.26194,4.0437393 101.2283,4.0281202 97.9375,7.53125 94.646693,11.034379 95.160347,13.171898 96.5,15.25 c 1.912181,2.966219 6.69378,4.97186 9.25,5.0625 2.55622,0.09064 4.59201,-1.703169 6.1875,-1.21875 4.58621,1.392456 11.35467,5.23833 14.8125,8.59375 1.06505,0.478263 1.8189,1.583848 1.875,2.75 0.49322,9.432034 -0.90644,18.228955 -3,25.375 -2.03656,6.951515 -4.59891,12.1808 -7.375,15.375 l 0.0312,0.03125 c -3.68911,5.193328 -5.587,11.427403 -3.03125,16.5 1.17459,1.289753 2.18573,1.789658 3.125,1.96875 1.01795,0.194094 2.11839,0.04712 3.21875,-0.34375 1.10037,-0.390875 2.12733,-1.002189 2.9375,-1.5 1.31843,-0.809087 2.48637,-2.748929 3.8125,-2.25 1.32614,0.498929 1.98442,2.358499 2.25,3.9375 3.07652,19.08133 -2.88438,33.40388 -11.71875,42.625 C 111.05491,140.31869 99.061209,145.754 90,145.75 c -9.061206,0.004 -21.05491,-5.43131 -28.875,-13.59375 -8.834365,-9.22112 -14.795272,-23.54367 -11.71875,-42.625 0.265582,-1.579001 0.923865,-3.438571 2.25,-3.9375 1.326135,-0.498929 2.494075,1.440913 3.8125,2.25 0.810169,0.497811 1.837135,1.109125 2.9375,1.5 1.100365,0.390875 2.2008,0.537844 3.21875,0.34375 0.939272,-0.179092 1.950407,-0.678997 3.125,-1.96875 2.555748,-5.072597 0.657863,-11.306672 -3.03125,-16.5 L 61.75,71.1875 c -2.776092,-3.1942 -5.338437,-8.423485 -7.375,-15.375 -2.093554,-7.146045 -3.493221,-15.942966 -3,-25.375 0.05614,-1.166152 0.809952,-2.271737 1.875,-2.75 3.457835,-3.35542 10.226292,-7.201294 14.8125,-8.59375 1.595488,-0.484419 3.631283,1.309389 6.1875,1.21875 2.556217,-0.09064 7.337819,-2.096281 9.25,-5.0625 1.339653,-2.078102 1.853306,-4.215621 -1.4375,-7.71875 C 79.183046,4.4660114 76.513291,4.0747986 73.71875,4.125 z"
       id="path4837"
       style="color:#000000;fill:#1f1a17;fill-opacity:1;stroke:none;stroke-width:0.89999998;marker:none;visibility:visible;display:inline;overflow:visible;enable-background:accumulate" />
    <path
       d="M 54.562206,30.607615 C 66.116162,25.38592 80.84793,23.258793 86.439051,16.527046 L 86.634614,7.5311265 C 77.925602,0.12886249 72.176515,-1.4986056 59.972795,6.6836848 47.769075,14.865975 33.690377,23.31867 21.577169,25.197026 c 0.553851,14.092823 -0.672698,28.408195 5.08465,41.850581 l -5.801716,22.424611 c -2.464247,48.806812 30.653623,81.935652 69.131684,82.104062"
       id="path4736-8"
       style="color:#000000;fill:none;stroke:none;stroke-width:0.89999998;marker:none;visibility:visible;display:inline;overflow:visible;enable-background:accumulate" />
    <path
       d="m 54.562206,30.607615 c -0.0227,13.644859 1.618808,23.903027 4.859328,30.329219 4.312738,8.552482 10.88866,15.540082 10.135444,23.529234 -2.905921,8.468082 -8.449332,10.629124 -17.008963,5.577465 -3.090405,26.878487 12.222899,52.542327 37.475032,52.501917"
       id="path4759-4"
       style="color:#000000;fill:none;stroke:none;stroke-width:0.89999998;marker:none;visibility:visible;display:inline;overflow:visible;enable-background:accumulate" />
    <path
       d="m 51.35363,31.904466 c -0.0053,-5.907288 0.417352,-11.637798 1.767767,-17.545086 l 3.579727,-2.96101 c -1.626579,5.710686 -2.295667,12.271237 -2.474873,18.649941 l -2.872621,1.856155 z"
       id="path4862"
       style="color:#000000;fill:#e4e4e4;fill-opacity:1;fill-rule:nonzero;stroke:none;stroke-width:0.89999998;marker:none;visibility:visible;display:inline;overflow:visible;enable-background:accumulate" />
    <path
       d="m 128.64434,31.904465 c 0.005,-5.907288 -0.41735,-11.637798 -1.76777,-17.545086 l -3.57972,-2.96101 c 1.62658,5.710686 2.29566,12.271237 2.47487,18.649941 l 2.87262,1.856155 z"
       id="path4862-2"
       style="color:#000000;fill:#e4e4e4;fill-opacity:1;fill-rule:nonzero;stroke:none;stroke-width:0.89999998;marker:none;visibility:visible;display:inline;overflow:visible;enable-background:accumulate" />
    <path
       d="M 73.0625,1.25 C 69.405909,1.4123426 65.307878,3.1077479 59.96875,6.6875 54.682048,10.232102 49.49298,14.319455 43.8125,17.40625 36.380271,21.44495 28.240716,21.185356 21.375,22.25 21.928851,36.342823 20.898902,53.620114 26.65625,67.0625 L 20.875,89.46875 c -2.464247,48.80681 30.646939,81.92534 69.125,82.09375 38.47806,-0.16841 71.58925,-33.28694 69.125,-82.09375 L 153.34375,67.0625 C 159.1011,53.620114 158.07115,36.342823 158.625,22.25 151.75928,21.185356 143.61973,21.44495 136.1875,17.40625 130.50702,14.319455 125.31795,10.232102 120.03125,6.6875 114.69212,3.1077479 110.59409,1.4123426 106.9375,1.25 102.23617,1.0412738 98.273819,3.3674765 93.375,7.53125 l 0.1875,9 c 5.591119,6.731747 20.32104,8.840805 31.875,14.0625 0.94304,18.034062 -5.31308,33.887391 -9.75,38.78125 -4.15893,5.854716 -6.71512,13.535046 -3.15625,20.125 6.79687,8.093351 15.2002,-0.717999 14.90625,0.53125 5.87445,36.43477 -22.37748,52.5 -37.4375,52.5 -15.060018,0 -43.311953,-16.06523 -37.4375,-52.5 C 52.26855,88.782001 60.671881,97.593351 67.46875,89.5 71.027617,82.910046 68.471434,75.229716 64.3125,69.375 59.87558,64.481141 53.619461,48.627812 54.5625,30.59375 66.116456,25.372055 80.846379,23.262997 86.4375,16.53125 l 0.1875,-9 C 81.726181,3.3674765 77.763831,1.0412738 73.0625,1.25 z"
       id="path4736"
       style="color:#000000;fill:none;stroke:#4b4b4b;stroke-width:0.89999998;stroke-linecap:round;stroke-linejoin:round;stroke-miterlimit:4;stroke-opacity:1;stroke-dasharray:none;stroke-dashoffset:0;marker:none;visibility:visible;display:inline;overflow:visible;enable-background:accumulate" />
  </g>
  <g
     id="layer5"
     style="display:inline">
    <path
       d="m 28,92 c 0,21.18224 7.5868,44.72477 26.09375,59.4375 9.998555,8.07716 21.942694,12.8534 35.875,12.875 0.03154,5e-5 0.06219,0 0.09375,0 13.93231,-0.0216 25.87644,-4.79784 35.875,-12.875 C 144.44445,136.72477 152.03125,113.18224 152.03125,92"
       id="path3736"
       style="color:#000000;fill:none;stroke:none;stroke-width:0.89999998;marker:none;visibility:visible;display:inline;overflow:visible;enable-background:accumulate" />
    <g
       id="text3784"
       style="font-size:40px;font-style:normal;font-weight:normal;fill:#c1c1c0;fill-opacity:1;stroke:none;font-family:Bitstream Vera Sans">
      <path
         d="m 35.44456,104.24983 c -4.480631,0.34823 -6.896879,-1.74133 -7.248749,-6.26868 l -0.340521,-4.381319 13.301682,-1.033821 0.340521,4.381318 c 0.351858,4.527352 -1.665785,6.961522 -6.052933,7.302502 z m -0.196821,-2.5324 c 0.671794,-0.0522 1.268387,-0.16471 1.78978,-0.33745 0.521374,-0.17277 0.953369,-0.43702 1.295984,-0.79275 0.342594,-0.35575 0.590407,-0.815788 0.743438,-1.380115 0.153009,-0.564342 0.197056,-1.264195 0.132142,-2.09956 l -0.146424,-1.883967 -8.727586,0.678318 0.146424,1.883966 c 0.06447,0.829523 0.218814,1.511018 0.463037,2.044487 0.244215,0.533451 0.568895,0.949001 0.974038,1.246631 0.405135,0.29762 0.887489,0.49227 1.447062,0.58396 0.559561,0.0917 1.186929,0.1105 1.882105,0.0565 z"
         id="path4536"
         style="font-size:18px;font-variant:normal;font-weight:bold;font-stretch:normal;text-align:start;text-anchor:start;fill:#c1c1c0;font-family:Mangal;-inkscape-font-specification:Mangal Bold" />
      <path
         d="m 31.517145,117.3043 -2.323493,-9.92702 12.990708,-3.04057 2.257393,9.64461 -2.23358,0.52279 -1.690541,-7.22276 -2.935318,0.68703 1.582378,6.76064 -2.216464,0.51878 -1.582379,-6.76064 -3.371764,0.78918 1.75664,7.50518 z"
         id="path4539"
         style="font-size:18px;font-variant:normal;font-weight:bold;font-stretch:normal;text-align:start;text-anchor:start;fill:#c1c1c0;font-family:Mangal;-inkscape-font-specification:Mangal Bold" />
      <path
         d="m 50.300067,126.5019 c 0.468003,0.80555 0.757371,1.63019 0.868102,2.47392 0.110699,0.84372 0.04917,1.66216 -0.184597,2.45531 -0.233796,0.79314 -0.636519,1.54045 -1.208171,2.24191 -0.571681,0.70144 -1.303353,1.3112 -2.195018,1.82927 -0.881558,0.51216 -1.765847,0.84465 -2.65287,0.99748 -0.887043,0.15281 -1.735503,0.13582 -2.545384,-0.051 -0.809896,-0.18679 -1.557713,-0.535 -2.243454,-1.04463 -0.685752,-0.50965 -1.265578,-1.17231 -1.739481,-1.98799 -0.473909,-0.81568 -0.763687,-1.64686 -0.869333,-2.49353 -0.105652,-0.84667 -0.04032,-1.66732 0.195996,-2.46194 0.236311,-0.79462 0.641772,-1.54012 1.216386,-2.23651 0.574606,-0.69639 1.305216,-1.30214 2.191834,-1.81725 0.896738,-0.521 1.791365,-0.85612 2.683883,-1.00534 0.892501,-0.14922 1.741903,-0.1277 2.548208,0.0645 0.806282,0.19227 1.547236,0.54616 2.222863,1.06168 0.6756,0.51553 1.245945,1.17354 1.711036,1.97402 z m -9.990205,5.79407 c 0.285515,0.49144 0.640685,0.88989 1.06551,1.19536 0.424812,0.30547 0.896841,0.50558 1.41609,0.60034 0.519233,0.0947 1.076203,0.0795 1.670913,-0.0458 0.59469,-0.12529 1.208687,-0.3719 1.841993,-0.73983 0.638349,-0.37089 1.158479,-0.78489 1.560391,-1.24201 0.401887,-0.45713 0.687728,-0.93323 0.857525,-1.4283 0.169769,-0.49507 0.226112,-0.99877 0.169029,-1.51111 -0.05711,-0.51233 -0.224006,-1.00662 -0.500683,-1.48286 -0.282591,-0.48637 -0.635022,-0.88302 -1.057295,-1.18996 -0.422298,-0.30695 -0.893266,-0.51106 -1.412906,-0.61235 -0.519662,-0.10129 -1.077573,-0.0906 -1.673736,0.0322 -0.596181,0.12274 -1.20838,0.36662 -1.8366,0.73161 -0.633302,0.36794 -1.150899,0.78047 -1.552793,1.2376 -0.401905,0.45713 -0.69028,0.93469 -0.865124,1.43271 -0.174855,0.49801 -0.236264,1.00466 -0.184228,1.51994 0.05203,0.51527 0.219331,1.0161 0.501914,1.50247 z"
         id="path4541"
         style="font-size:18px;font-variant:normal;font-weight:bold;font-stretch:normal;text-align:start;text-anchor:start;fill:#c1c1c0;font-family:Mangal;-inkscape-font-specification:Mangal Bold" />
      <path
         d="m 53.362693,131.9717 3.433562,3.79161 c 0.306764,0.33877 0.588202,0.68666 0.844312,1.04365 0.256081,0.357 0.4693,0.72121 0.639657,1.09262 0.170325,0.37142 0.290804,0.74452 0.361437,1.11929 0.0706,0.37477 0.07273,0.75029 0.0064,1.12657 -0.06637,0.37628 -0.207309,0.75094 -0.422822,1.12398 -0.215545,0.37303 -0.523097,0.74047 -0.922655,1.10231 -1.051066,0.9518 -2.128536,1.3485 -3.232415,1.19009 -1.103901,-0.15841 -2.22614,-0.86738 -3.366718,-2.1269 l -1.840673,-2.03262 -3.719942,3.36867 -1.669585,-1.84368 z m -2.806073,5.89671 1.87017,2.06519 c 0.306769,0.33876 0.599805,0.59907 0.87911,0.78092 0.279284,0.18184 0.547581,0.29262 0.804892,0.33234 0.257288,0.0397 0.506438,0.0137 0.74745,-0.0781 0.240987,-0.0918 0.478753,-0.24384 0.713298,-0.45622 0.282294,-0.25565 0.463115,-0.51425 0.542462,-0.77581 0.07932,-0.26156 0.0882,-0.52454 0.02665,-0.78893 -0.06158,-0.26439 -0.181287,-0.52752 -0.359118,-0.78938 -0.177858,-0.26186 -0.382806,-0.52091 -0.614844,-0.77716 l -1.834773,-2.0261 z"
         id="path4543"
         style="font-size:18px;font-variant:normal;font-weight:bold;font-stretch:normal;text-align:start;text-anchor:start;fill:#c1c1c0;font-family:Mangal;-inkscape-font-specification:Mangal Bold" />
      <path
         d="m 60.242288,139.47953 4.120583,3.03092 c 0.368148,0.2708 0.713295,0.55559 1.03544,0.85436 0.322117,0.29878 0.603669,0.61316 0.844657,0.94315 0.240957,0.33 0.433403,0.67159 0.577338,1.02475 0.143903,0.35317 0.220864,0.72073 0.230881,1.10268 0.01,0.38196 -0.05343,0.7772 -0.190239,1.18571 -0.136844,0.40852 -0.364962,0.8299 -0.684355,1.26414 -0.840198,1.14225 -1.816945,1.7458 -2.930243,1.81066 -1.113323,0.0649 -2.354381,-0.40613 -3.723179,-1.41296 l -2.208972,-1.62482 -2.973626,4.04271 -2.003651,-1.4738 z m -1.574074,6.33778 2.244373,1.65086 c 0.368151,0.27081 0.707204,0.46746 1.017157,0.58997 0.309932,0.12251 0.594929,0.17758 0.854993,0.16519 0.26004,-0.0124 0.498999,-0.0875 0.716877,-0.22553 0.217853,-0.13797 0.420525,-0.33439 0.608017,-0.58928 0.225656,-0.3068 0.351287,-0.59626 0.376893,-0.86839 0.02558,-0.27212 -0.01815,-0.53159 -0.131178,-0.7784 -0.113058,-0.24681 -0.282822,-0.48078 -0.509291,-0.70193 -0.226496,-0.22114 -0.478977,-0.43413 -0.757447,-0.63897 l -2.201892,-1.61961 z"
         id="path4545"
         style="font-size:18px;font-variant:normal;font-weight:bold;font-stretch:normal;text-align:start;text-anchor:start;fill:#c1c1c0;font-family:Mangal;-inkscape-font-specification:Mangal Bold" />
      <path
         d="m 73.386719,162.20674 -2.46077,-1.06328 0.269913,-3.83762 c 0.01387,-0.26848 -0.0073,-0.52974 -0.06345,-0.7838 -0.05619,-0.25406 -0.146848,-0.49111 -0.271978,-0.71114 -0.125148,-0.22003 -0.28324,-0.41919 -0.474276,-0.59748 -0.191054,-0.17829 -0.412977,-0.32206 -0.665769,-0.43129 l -2.452702,-1.0598 -2.126563,4.92154 -2.283273,-0.98658 5.292004,-12.24738 5.486309,2.3706 c 0.32809,0.14178 0.637151,0.2833 0.927184,0.42456 0.290007,0.14128 0.558628,0.29884 0.805864,0.47268 0.247209,0.17385 0.472054,0.36994 0.674535,0.58827 0.202452,0.21834 0.374804,0.47313 0.517058,0.76437 0.124626,0.25812 0.216348,0.52594 0.275166,0.80347 0.05879,0.27754 0.08681,0.55614 0.08407,0.83579 -0.0028,0.27967 -0.03379,0.55828 -0.09308,0.83585 -0.05931,0.27757 -0.143578,0.54276 -0.252796,0.79555 -0.323067,0.74765 -0.780404,1.3112 -1.372014,1.69067 -0.591638,0.37947 -1.266384,0.57462 -2.02424,0.58544 0.349741,0.62347 0.50274,1.43639 0.458997,2.43875 z m -5.209145,-10.59018 3.041674,1.31428 c 0.408773,0.17664 0.771937,0.30005 1.089491,0.37023 0.317533,0.0702 0.596978,0.0808 0.838334,0.0319 0.241333,-0.0489 0.450356,-0.15965 0.627068,-0.33224 0.176687,-0.17258 0.330113,-0.40947 0.460276,-0.71069 0.234722,-0.54324 0.237857,-1.01582 0.0094,-1.41774 -0.228477,-0.4019 -0.695016,-0.75508 -1.399618,-1.05955 l -3.275649,-1.41538 z"
         id="path4547"
         style="font-size:18px;font-variant:normal;font-weight:bold;font-stretch:normal;text-align:start;text-anchor:start;fill:#c1c1c0;font-family:Mangal;-inkscape-font-specification:Mangal Bold" />
      <path
         d="m 85.800089,164.41936 -10.055524,-1.68251 2.201766,-13.15887 9.769462,1.63464 -0.378565,2.2625 -7.31626,-1.22417 -0.497501,2.97331 6.848159,1.14585 -0.375664,2.24515 -6.848158,-1.14584 -0.571473,3.41541 7.602323,1.27203 z"
         id="path4549"
         style="font-size:18px;font-variant:normal;font-weight:bold;font-stretch:normal;text-align:start;text-anchor:start;fill:#c1c1c0;font-family:Mangal;-inkscape-font-specification:Mangal Bold" />
      <path
         d="m 93.627971,164.41336 c -0.953563,0.0539 -1.792754,-0.0234 -2.517576,-0.2319 -0.724831,-0.20848 -1.339654,-0.52146 -1.844473,-0.93897 -0.504824,-0.4175 -0.898981,-0.92781 -1.182474,-1.53095 -0.283496,-0.60313 -0.457764,-1.27259 -0.522806,-2.00838 l 2.413144,-0.13633 c 0.06772,0.47155 0.206473,0.87599 0.416268,1.21332 0.209787,0.33734 0.467378,0.61182 0.772774,0.82344 0.305387,0.21163 0.649804,0.3609 1.033251,0.44781 0.383436,0.0869 0.788684,0.1183 1.215743,0.0942 0.403647,-0.0228 0.769886,-0.0846 1.098719,-0.18531 0.328817,-0.10074 0.60748,-0.23239 0.835987,-0.39495 0.228491,-0.16256 0.400976,-0.3557 0.517458,-0.57943 0.116463,-0.22372 0.167098,-0.47013 0.151904,-0.73924 -0.01554,-0.27495 -0.09165,-0.50539 -0.228323,-0.69135 -0.136691,-0.18594 -0.34973,-0.34703 -0.639117,-0.48327 -0.289403,-0.13623 -0.665805,-0.25435 -1.129207,-0.35435 -0.463416,-0.1 -1.032373,-0.19843 -1.706874,-0.29531 -0.770095,-0.12668 -1.436454,-0.2871 -1.999078,-0.48127 -0.562632,-0.19415 -1.029585,-0.4348 -1.400862,-0.72194 -0.37128,-0.28712 -0.653065,-0.62626 -0.845354,-1.01741 -0.192291,-0.39114 -0.303143,-0.84704 -0.332557,-1.3677 -0.03173,-0.56159 0.05611,-1.08447 0.263504,-1.56863 0.207395,-0.48414 0.516416,-0.90947 0.927062,-1.276 0.410641,-0.36651 0.908862,-0.66315 1.494664,-0.88992 0.585794,-0.22675 1.24432,-0.36079 1.975581,-0.40211 0.7605,-0.043 1.461058,0.0216 2.101678,0.19377 0.640604,0.17216 1.200051,0.43986 1.678342,0.8031 0.478272,0.36326 0.863522,0.81979 1.155752,1.3696 0.29221,0.54984 0.467255,1.18111 0.525137,1.89381 l -2.386819,0.13484 c -0.261109,-1.50523 -1.21944,-2.21109 -2.874996,-2.11757 -0.807311,0.0456 -1.416806,0.2165 -1.828487,0.51264 -0.411689,0.29617 -0.604146,0.68117 -0.577373,1.15501 0.0109,0.19306 0.06721,0.35861 0.168907,0.49664 0.101694,0.13804 0.258307,0.26124 0.469837,0.36959 0.211523,0.10837 0.480972,0.20318 0.808347,0.28445 0.327366,0.0813 0.721847,0.15583 1.183444,0.22364 0.402424,0.0594 0.815587,0.12706 1.23949,0.20287 0.42389,0.0758 0.840168,0.17262 1.248836,0.29038 0.408651,0.11777 0.795646,0.26756 1.160985,0.44939 0.36532,0.18184 0.690633,0.40848 0.97594,0.67992 0.285285,0.27145 0.516436,0.59731 0.693451,0.97758 0.176993,0.38027 0.280202,0.83073 0.309628,1.35138 0.03469,0.61426 -0.05936,1.18297 -0.282145,1.70613 -0.22281,0.52317 -0.547645,0.98021 -0.974507,1.37112 -0.426882,0.39091 -0.944586,0.70626 -1.553115,0.94604 -0.608545,0.23979 -1.278441,0.38033 -2.00969,0.42165 z"
         id="path4551"
         style="font-size:18px;font-variant:normal;font-weight:bold;font-stretch:normal;text-align:start;text-anchor:start;fill:#c1c1c0;font-family:Mangal;-inkscape-font-specification:Mangal Bold" />
      <path
         d="m 106.28523,162.18377 c -0.91652,0.26867 -1.75138,0.38364 -2.50459,0.34493 -0.75322,-0.0387 -1.423,-0.20415 -2.00933,-0.49632 -0.58633,-0.29218 -1.08593,-0.69984 -1.49878,-1.223 -0.41286,-0.52315 -0.734371,-1.13566 -0.96454,-1.83754 l 2.3194,-0.6799 c 0.17286,0.44391 0.3997,0.80636 0.68051,1.08734 0.28081,0.281 0.59392,0.48993 0.93934,0.6268 0.34542,0.13688 0.71471,0.20418 1.10788,0.20188 0.39315,-0.002 0.79496,-0.0636 1.20543,-0.18391 0.38797,-0.11373 0.73066,-0.25692 1.02809,-0.4296 0.29742,-0.17266 0.53898,-0.36406 0.72468,-0.5742 0.18568,-0.21013 0.30989,-0.43735 0.37261,-0.68166 0.0627,-0.24429 0.0562,-0.49577 -0.0196,-0.75442 -0.0775,-0.26427 -0.20385,-0.47146 -0.37912,-0.62158 -0.17529,-0.15011 -0.41931,-0.2587 -0.73205,-0.32579 -0.31275,-0.0671 -0.70613,-0.0968 -1.18014,-0.0891 -0.47402,0.008 -1.05048,0.0408 -1.72938,0.0994 -0.77876,0.0512 -1.46414,0.046 -2.05613,-0.0155 -0.592,-0.0615 -1.10136,-0.19004 -1.52806,-0.38553 -0.426715,-0.19547 -0.778051,-0.46189 -1.054016,-0.79926 -0.275963,-0.33735 -0.487291,-0.75625 -0.633985,-1.25668 -0.158229,-0.53978 -0.191229,-1.06895 -0.099,-1.58753 0.09223,-0.51855 0.29677,-1.00287 0.613622,-1.45296 0.316853,-0.45006 0.734845,-0.85193 1.253979,-1.20562 0.51913,-0.35365 1.13011,-0.6335 1.83296,-0.83955 0.73096,-0.21425 1.42792,-0.31017 2.09089,-0.28777 0.66295,0.0224 1.26852,0.15633 1.81671,0.40167 0.54818,0.24537 1.0269,0.60267 1.43618,1.07191 0.40926,0.46926 0.72287,1.0444 0.94083,1.72542 l -2.29409,0.67248 c -0.59558,-1.40684 -1.68899,-1.87704 -3.28023,-1.4106 -0.77595,0.22746 -1.33083,0.53208 -1.66465,0.91385 -0.33382,0.38179 -0.43398,0.8004 -0.30047,1.25584 0.0544,0.18556 0.14676,0.33403 0.27711,0.4454 0.13034,0.1114 0.31081,0.19588 0.5414,0.25345 0.23058,0.0576 0.51451,0.0888 0.85178,0.0938 0.33727,0.005 0.73838,-0.0119 1.20333,-0.0505 0.40542,-0.0333 0.82316,-0.0612 1.25321,-0.0834 0.43005,-0.0223 0.85743,-0.0224 1.28215,-3.3e-4 0.42471,0.022 0.83559,0.0802 1.23264,0.17446 0.39704,0.0943 0.76526,0.24126 1.10468,0.44095 0.3394,0.19971 0.63841,0.46468 0.89703,0.7949 0.2586,0.33025 0.46126,0.74558 0.60796,1.246 0.17305,0.5904 0.21039,1.16562 0.11202,1.72567 -0.0984,0.56006 -0.31115,1.07884 -0.63827,1.55635 -0.32714,0.47752 -0.75986,0.90203 -1.29818,1.27354 -0.53833,0.37151 -1.15892,0.66028 -1.86176,0.8663 z"
         id="path4553"
         style="font-size:18px;font-variant:normal;font-weight:bold;font-stretch:normal;text-align:start;text-anchor:start;fill:#c1c1c0;font-family:Mangal;-inkscape-font-specification:Mangal Bold" />
      <path
         d="m 111.72042,144.869 c 0.80255,-0.47313 1.62533,-0.76775 2.46834,-0.88386 0.843,-0.11608 1.66181,-0.0598 2.45644,0.16893 0.79462,0.22874 1.54447,0.62668 2.24956,1.19385 0.70508,0.5672 1.31949,1.29497 1.84323,2.18331 0.51778,0.87827 0.85591,1.76042 1.01439,2.64645 0.15846,0.88605 0.14688,1.7346 -0.0347,2.54566 -0.18162,0.81107 -0.52506,1.56109 -1.0303,2.25007 -0.50527,0.68899 -1.16422,1.27303 -1.97685,1.75212 -0.81265,0.47911 -1.64197,0.77418 -2.48794,0.88522 -0.84599,0.11105 -1.66703,0.051 -2.46314,-0.18029 -0.79611,-0.23124 -1.54419,-0.63194 -2.24422,-1.2021 -0.70004,-0.57015 -1.31044,-1.29688 -1.8312,-2.1802 -0.52671,-0.89339 -0.86752,-1.78587 -1.02243,-2.67742 -0.15491,-0.89153 -0.13881,-1.74105 0.0483,-2.54856 0.18712,-0.80749 0.53628,-1.55069 1.04748,-2.22959 0.51121,-0.67888 1.16556,-1.2534 1.96306,-1.72359 z m 5.85767,9.95305 c 0.4896,-0.28864 0.88578,-0.64635 1.18854,-1.07311 0.30275,-0.42675 0.49985,-0.90005 0.59129,-1.41989 0.0914,-0.51983 0.0726,-1.07669 -0.0564,-1.67059 -0.12907,-0.59388 -0.3796,-1.20629 -0.75156,-1.83724 -0.37495,-0.63597 -0.79227,-1.15345 -1.25194,-1.55243 -0.45968,-0.39897 -0.9376,-0.68177 -1.43373,-0.8484 -0.49615,-0.16661 -1.0002,-0.21974 -1.51216,-0.15939 -0.51196,0.0604 -1.00518,0.23042 -1.47964,0.51013 -0.48456,0.28568 -0.87896,0.64064 -1.1832,1.06486 -0.30424,0.42425 -0.50535,0.89651 -0.60332,1.41678 -0.098,0.5203 -0.0837,1.07813 0.0429,1.6735 0.12655,0.59538 0.37432,1.20602 0.74331,1.8319 0.37197,0.63094 0.7878,1.14589 1.24748,1.54486 0.45968,0.39899 0.93908,0.68431 1.4382,0.85597 0.49911,0.17168 1.00614,0.22986 1.52108,0.17453 0.51493,-0.0553 1.01468,-0.2258 1.49924,-0.51148 z"
         id="path4555"
         style="font-size:18px;font-variant:normal;font-weight:bold;font-stretch:normal;text-align:start;text-anchor:start;fill:#c1c1c0;font-family:Mangal;-inkscape-font-specification:Mangal Bold" />
      <path
         d="m 138.1688,138.74394 -5.49066,6.62495 -10.27239,-8.51361 1.58719,-1.91508 8.50619,7.04981 3.90347,-4.70987 z"
         id="path4557"
         style="font-size:18px;font-variant:normal;font-weight:bold;font-stretch:normal;text-align:start;text-anchor:start;fill:#c1c1c0;font-family:Mangal;-inkscape-font-specification:Mangal Bold" />
      <path
         d="m 140.66583,134.65655 -1.3326,2.08979 -11.2493,-7.17334 1.33259,-2.08979 z"
         id="path4559"
         style="font-size:18px;font-variant:normal;font-weight:bold;font-stretch:normal;text-align:start;text-anchor:start;fill:#c1c1c0;font-family:Mangal;-inkscape-font-specification:Mangal Bold" />
      <path
         d="m 142.9701,121.15188 c 1.19894,0.56224 1.92847,1.37678 2.18861,2.44361 0.26013,1.06685 0.032,2.3642 -0.6845,3.89204 l -2.17553,4.63926 -12.07957,-5.66458 2.07477,-4.4244 c 0.30351,-0.6472 0.654,-1.19796 1.05147,-1.65227 0.39749,-0.45428 0.82451,-0.80251 1.28105,-1.04468 0.45656,-0.24214 0.93369,-0.36948 1.43141,-0.38202 0.49772,-0.0125 0.99856,0.0994 1.50254,0.33572 0.50929,0.23884 0.91075,0.54197 1.2044,0.9094 0.29365,0.36746 0.49042,0.81729 0.59031,1.3495 0.27476,-0.22709 0.56331,-0.4008 0.86565,-0.52113 0.30234,-0.12031 0.60912,-0.19487 0.92032,-0.22368 0.3112,-0.0288 0.6209,-0.013 0.9291,0.0474 0.3082,0.0604 0.60819,0.15902 0.89997,0.29583 z m -6.93633,5.28984 1.01126,-2.15649 c 0.32839,-0.70026 0.46617,-1.26663 0.41334,-1.69913 -0.0528,-0.43247 -0.32591,-0.76439 -0.81928,-0.99576 -0.22281,-0.10447 -0.43448,-0.15681 -0.63501,-0.15702 -0.20052,-1.9e-4 -0.39559,0.0604 -0.5852,0.18182 -0.1896,0.12143 -0.37685,0.31028 -0.56176,0.56656 -0.18489,0.2563 -0.37188,0.58604 -0.56095,0.98921 l -0.9441,2.01326 z m 5.24403,2.45913 1.11575,-2.37931 c 0.72393,-1.54376 0.55539,-2.56441 -0.50561,-3.06197 -0.27587,-0.12935 -0.53192,-0.20089 -0.76818,-0.21461 -0.23625,-0.0137 -0.46672,0.0465 -0.69139,0.18056 -0.22467,0.13411 -0.44471,0.34803 -0.66013,0.64178 -0.21541,0.29376 -0.43631,0.68202 -0.66269,1.16476 l -1.01873,2.17242 z"
         id="path4561"
         style="font-size:18px;font-variant:normal;font-weight:bold;font-stretch:normal;text-align:start;text-anchor:start;fill:#c1c1c0;font-family:Mangal;-inkscape-font-specification:Mangal Bold" />
      <path
         d="m 150.25301,110.56834 -2.7649,9.81324 -12.84181,-3.6182 2.68624,-9.53407 2.20798,0.6221 -2.0117,7.13998 2.90168,0.81755 1.88299,-6.68316 2.19106,0.61734 -1.88299,6.68315 3.33311,0.93912 2.09036,-7.41915 z"
         id="path4563"
         style="font-size:18px;font-variant:normal;font-weight:bold;font-stretch:normal;text-align:start;text-anchor:start;fill:#c1c1c0;font-family:Mangal;-inkscape-font-specification:Mangal Bold" />
      <path
         d="m 152.12683,96.555288 -0.32004,2.661492 -3.75607,0.83194 c -0.26134,0.063 -0.50582,0.15754 -0.73344,0.2836 -0.22761,0.12608 -0.42911,0.28037 -0.6045,0.46288 -0.17539,0.18252 -0.3214,0.3907 -0.43805,0.62453 -0.11664,0.23385 -0.1914,0.48748 -0.22428,0.7609 l -0.31899,2.65276 5.32298,0.64008 -0.29695,2.46951 -13.24637,-1.59284 0.71352,-5.93382 c 0.0427,-0.35485 0.0905,-0.691393 0.14354,-1.009615 0.053,-0.318201 0.12774,-0.620525 0.22414,-0.906973 0.0964,-0.286426 0.22052,-0.55773 0.37229,-0.813913 0.1518,-0.25616 0.3471,-0.493821 0.5859,-0.712983 0.21205,-0.192849 0.44276,-0.356908 0.69213,-0.492178 0.24938,-0.135244 0.50853,-0.241295 0.77743,-0.318152 0.26892,-0.07683 0.54486,-0.12627 0.82782,-0.148322 0.28299,-0.02202 0.56119,-0.0166 0.8346,0.01626 0.80863,0.09725 1.47893,0.375554 2.01089,0.834915 0.53198,0.459386 0.91085,1.050841 1.13663,1.774366 0.49835,-0.512518 1.23426,-0.890252 2.20772,-1.133203 z m -8.67291,8.004232 0.39559,-3.28978 c 0.0532,-0.44211 0.0683,-0.82538 0.0453,-1.14978 -0.023,-0.32439 -0.0922,-0.595334 -0.20767,-0.812835 -0.11548,-0.217481 -0.28106,-0.386407 -0.49676,-0.506779 -0.21568,-0.120351 -0.48641,-0.200119 -0.8122,-0.239303 -0.58755,-0.07064 -1.04154,0.06067 -1.36195,0.393929 -0.32039,0.333282 -0.52641,0.880962 -0.61806,1.643038 l -0.42601,3.54284 z"
         id="path4565"
         style="font-size:18px;font-variant:normal;font-weight:bold;font-stretch:normal;text-align:start;text-anchor:start;fill:#c1c1c0;font-family:Mangal;-inkscape-font-specification:Mangal Bold" />
    </g>
  </g>
  <g
     id="layer3"
     style="display:inline">
    <path
       d="m 24.099585,24.012445 c 0,0 61.44004,23.131156 65.56243,24.850374 2.87998,1.201077 1.34676,4.744995 -1.42658,3.707574 -4.44936,-1.664366 -65.12049,-24.848901 -65.12049,-24.848901"
       id="path3973-4-6-9"
       style="color:#000000;fill:#c3c3c2;fill-opacity:1;stroke:none;stroke-width:0.89999998;marker:none;visibility:visible;display:inline;overflow:visible;enable-background:accumulate" />
    <path
       d="m 24.565145,24.184825 c 0,0 60.97448,22.95877 65.09687,24.677989 2.87998,1.201077 1.34676,4.744995 -1.42658,3.707574 -4.44936,-1.664366 -64.65494,-24.676516 -64.65494,-24.676516"
       id="path3973-4-3"
       style="color:#000000;fill:none;stroke:#4b4b4b;stroke-width:0.89999998;stroke-linecap:round;stroke-linejoin:round;stroke-miterlimit:4;stroke-opacity:1;stroke-dasharray:none;stroke-dashoffset:0;marker:none;visibility:visible;display:inline;overflow:visible;enable-background:accumulate" />
    <path
       d="M 25.812745,36.79737 25.286935,26.34708 35.137005,20.313101 5.8867274,18.692592 25.812745,36.79737 z"
       id="path4538-0-4"
       style="color:#000000;fill:#c3c3c2;fill-opacity:1;stroke:none;stroke-width:0.89999998;marker:none;visibility:visible;display:inline;overflow:visible;enable-background:accumulate" />
    <path
       d="M 26.997135,25.299438 35.137005,20.313101 5.8867274,18.692592 26.997135,25.299438 z"
       id="path4538-0-9-4"
       style="color:#000000;fill:#aaa9a9;fill-opacity:1;stroke:none;stroke-width:0.89999998;marker:none;visibility:visible;display:inline;overflow:visible;enable-background:accumulate" />
    <path
       d="M 25.812745,36.79737 25.391765,28.430455 5.8867274,18.692592 25.812745,36.79737 z"
       id="path4538-0-0-6"
       style="color:#000000;fill:#e0e0df;fill-opacity:1;stroke:none;stroke-width:0.89999998;marker:none;visibility:visible;display:inline;overflow:visible;enable-background:accumulate" />
    <path
       d="M 35.137005,20.313099 5.8867274,18.69259 25.812745,36.797368"
       id="path4538-06"
       style="color:#000000;fill:none;stroke:#4b4b4b;stroke-width:0.89999998;stroke-linecap:round;stroke-linejoin:round;stroke-miterlimit:4;stroke-opacity:1;stroke-dasharray:none;stroke-dashoffset:0;marker:none;visibility:visible;display:inline;overflow:visible;enable-background:accumulate" />
    <path
       d="m 155.91916,24.012449 c 0,0 -61.440042,23.131156 -65.562429,24.850374 -2.879978,1.201077 -1.346757,4.744995 1.426585,3.707574 C 96.232673,50.906031 156.9038,27.721496 156.9038,27.721496"
       id="path3973-4-6"
       style="color:#000000;fill:#c3c3c2;fill-opacity:1;stroke:none;stroke-width:0.89999998;marker:none;visibility:visible;display:inline;overflow:visible;enable-background:accumulate" />
    <path
       d="m 155.4536,24.184829 c 0,0 -60.974482,22.95877 -65.096869,24.677989 -2.879977,1.201077 -1.346756,4.744995 1.426586,3.707574 4.449357,-1.664366 64.654933,-24.676516 64.654933,-24.676516"
       id="path3973-4"
       style="color:#000000;fill:none;stroke:#4b4b4b;stroke-width:0.89999998;stroke-linecap:round;stroke-linejoin:round;stroke-miterlimit:4;stroke-opacity:1;stroke-dasharray:none;stroke-dashoffset:0;marker:none;visibility:visible;display:inline;overflow:visible;enable-background:accumulate" />
    <path
       d="m 154.206,36.797374 0.52581,-10.45029 -9.85007,-6.033979 29.25028,-1.620509 -19.92602,18.104778 z"
       id="path4538-0"
       style="color:#000000;fill:#c3c3c2;fill-opacity:1;stroke:none;stroke-width:0.89999998;marker:none;visibility:visible;display:inline;overflow:visible;enable-background:accumulate" />
    <path
       d="m 153.02161,25.299442 -8.13987,-4.986337 29.25028,-1.620509 -21.11041,6.606846 z"
       id="path4538-0-9"
       style="color:#000000;fill:#aaa9a9;fill-opacity:1;stroke:none;stroke-width:0.89999998;marker:none;visibility:visible;display:inline;overflow:visible;enable-background:accumulate" />
    <path
       d="M 47.556844,80.259363 10.342991,94.691592 C 15.100698,81.473696 15.12181,81.496736 15.12181,81.496736 L 52.335663,67.064505 c 0,0 -0.02111,-0.02304 -4.778819,13.194858 z"
       id="path4040-7-1"
       style="color:#000000;fill:#c3c3c2;fill-opacity:1;stroke:none;stroke-width:0.89999998;marker:none;visibility:visible;display:inline;overflow:visible;enable-background:accumulate" />
    <path
       d="M 47.556844,80.259364 10.342991,94.691592 C 15.100698,81.473696 15.12181,81.496736 15.12181,81.496736 L 52.335663,67.064505 c 0,0 -0.02111,-0.02304 -4.778819,13.194859 z"
       id="path4040-8"
       style="color:#000000;fill:none;stroke:#4b4b4b;stroke-width:0.89999998;stroke-linecap:round;stroke-linejoin:round;stroke-miterlimit:4;stroke-opacity:1;stroke-dasharray:none;stroke-dashoffset:0;marker:none;visibility:visible;display:inline;overflow:visible;enable-background:accumulate" />
    <path
       d="m 17.712158,90.026672 c 4.757708,-13.217899 4.77882,-13.194858 4.77882,-13.194858"
       id="path4063-1-9"
       style="color:#000000;fill:none;stroke:#4b4b4b;stroke-width:0.89999998;stroke-linecap:round;stroke-linejoin:round;stroke-miterlimit:4;stroke-opacity:1;stroke-dasharray:none;stroke-dashoffset:0;marker:none;visibility:visible;display:inline;overflow:visible;enable-background:accumulate" />
    <path
       d="M 21.97892,88.321667 C 26.736627,75.103769 26.757739,75.126809 26.757739,75.126809"
       id="path4063-1-4-27"
       style="color:#000000;fill:none;stroke:#4b4b4b;stroke-width:0.89999998;stroke-linecap:round;stroke-linejoin:round;stroke-miterlimit:4;stroke-opacity:1;stroke-dasharray:none;stroke-dashoffset:0;marker:none;visibility:visible;display:inline;overflow:visible;enable-background:accumulate" />
    <path
       d="m 26.046565,86.908164 c 4.757708,-13.217899 4.77882,-13.194859 4.77882,-13.194859"
       id="path4063-1-4-2-9"
       style="color:#000000;fill:none;stroke:#4b4b4b;stroke-width:0.89999998;stroke-linecap:round;stroke-linejoin:round;stroke-miterlimit:4;stroke-opacity:1;stroke-dasharray:none;stroke-dashoffset:0;marker:none;visibility:visible;display:inline;overflow:visible;enable-background:accumulate" />
    <path
       d="M 30.115038,85.311747 C 34.872746,72.093848 34.893857,72.116889 34.893857,72.116889"
       id="path4063-1-4-2-3-5"
       style="color:#000000;fill:none;stroke:#4b4b4b;stroke-width:0.89999998;stroke-linecap:round;stroke-linejoin:round;stroke-miterlimit:4;stroke-opacity:1;stroke-dasharray:none;stroke-dashoffset:0;marker:none;visibility:visible;display:inline;overflow:visible;enable-background:accumulate" />
    <path
       d="M 34.213439,83.504291 C 38.971147,70.286392 38.992258,70.309433 38.992258,70.309433"
       id="path4063-1-4-2-3-2-4"
       style="color:#000000;fill:none;stroke:#4b4b4b;stroke-width:0.89999998;stroke-linecap:round;stroke-linejoin:round;stroke-miterlimit:4;stroke-opacity:1;stroke-dasharray:none;stroke-dashoffset:0;marker:none;visibility:visible;display:inline;overflow:visible;enable-background:accumulate" />
    <path
       d="M 38.164618,82.187806 C 42.922325,68.969907 42.943437,68.992947 42.943437,68.992947"
       id="path4063-1-4-2-3-2-2-3"
       style="color:#000000;fill:none;stroke:#4b4b4b;stroke-width:0.89999998;stroke-linecap:round;stroke-linejoin:round;stroke-miterlimit:4;stroke-opacity:1;stroke-dasharray:none;stroke-dashoffset:0;marker:none;visibility:visible;display:inline;overflow:visible;enable-background:accumulate" />
    <path
       d="m 42.218887,80.477249 c 4.757708,-13.217898 4.77882,-13.194858 4.77882,-13.194858"
       id="path4063-1-4-2-3-2-2-1-1"
       style="color:#000000;fill:none;stroke:#4b4b4b;stroke-width:0.89999998;stroke-linecap:round;stroke-linejoin:round;stroke-miterlimit:4;stroke-opacity:1;stroke-dasharray:none;stroke-dashoffset:0;marker:none;visibility:visible;display:inline;overflow:visible;enable-background:accumulate" />
    <path
       d="m 50.270585,67.703102 c -0.643656,1.778925 -2.664022,7.212202 -4.157925,11.369273 L 13.315723,91.762832 c 0.951203,-2.634529 3.029969,-8.365797 4.025516,-10.983071"
       id="path4332-2"
       style="color:#000000;fill:none;stroke:#4b4b4b;stroke-width:0.89999998;stroke-linecap:round;stroke-linejoin:round;stroke-miterlimit:4;stroke-opacity:1;stroke-dashoffset:0;marker:none;visibility:visible;display:inline;overflow:visible;enable-background:accumulate" />
    <path
       d="m 38.65625,58.153089 -37.1875,14.5 c 12.4375,6.53125 12.4375,6.5 12.4375,6.5 l 37.1875,-14.5 c 0,0 0,0.03125 -12.4375,-6.5 z"
       id="path4040-7"
       style="color:#000000;fill:#c3c3c2;fill-opacity:1;stroke:none;stroke-width:0.89999998;marker:none;visibility:visible;display:inline;overflow:visible;enable-background:accumulate" />
    <path
       d="m 38.65625,58.153089 -37.1875,14.5 c 12.4375,6.53125 12.4375,6.5 12.4375,6.5 l 37.1875,-14.5 c 0,0 0,0.03125 -12.4375,-6.5 z"
       id="path4040"
       style="color:#000000;fill:none;stroke:#4b4b4b;stroke-width:0.89999998;stroke-linecap:round;stroke-linejoin:round;stroke-miterlimit:4;stroke-opacity:1;stroke-dasharray:none;stroke-dashoffset:0;marker:none;visibility:visible;display:inline;overflow:visible;enable-background:accumulate" />
    <path
       d="m 10.053478,71.114068 c 12.4375,6.53125 12.4375,6.5 12.4375,6.5"
       id="path4063-1"
       style="color:#000000;fill:none;stroke:#4b4b4b;stroke-width:0.89999998;stroke-linecap:round;stroke-linejoin:round;stroke-miterlimit:4;stroke-opacity:1;stroke-dasharray:none;stroke-dashoffset:0;marker:none;visibility:visible;display:inline;overflow:visible;enable-background:accumulate" />
    <path
       d="m 14.351182,69.488635 c 12.4375,6.53125 12.4375,6.5 12.4375,6.5"
       id="path4063-1-4"
       style="color:#000000;fill:none;stroke:#4b4b4b;stroke-width:0.89999998;stroke-linecap:round;stroke-linejoin:round;stroke-miterlimit:4;stroke-opacity:1;stroke-dasharray:none;stroke-dashoffset:0;marker:none;visibility:visible;display:inline;overflow:visible;enable-background:accumulate" />
    <path
       d="m 18.305149,67.782798 c 12.4375,6.53125 12.4375,6.5 12.4375,6.5"
       id="path4063-1-4-2"
       style="color:#000000;fill:none;stroke:#4b4b4b;stroke-width:0.89999998;stroke-linecap:round;stroke-linejoin:round;stroke-miterlimit:4;stroke-opacity:1;stroke-dasharray:none;stroke-dashoffset:0;marker:none;visibility:visible;display:inline;overflow:visible;enable-background:accumulate" />
    <path
       d="m 22.383297,66.211263 c 12.4375,6.53125 12.4375,6.5 12.4375,6.5"
       id="path4063-1-4-2-3"
       style="color:#000000;fill:none;stroke:#4b4b4b;stroke-width:0.89999998;stroke-linecap:round;stroke-linejoin:round;stroke-miterlimit:4;stroke-opacity:1;stroke-dasharray:none;stroke-dashoffset:0;marker:none;visibility:visible;display:inline;overflow:visible;enable-background:accumulate" />
    <path
       d="m 26.626084,64.775106 c 12.4375,6.53125 12.4375,6.5 12.4375,6.5"
       id="path4063-1-4-2-3-2"
       style="color:#000000;fill:none;stroke:#4b4b4b;stroke-width:0.89999998;stroke-linecap:round;stroke-linejoin:round;stroke-miterlimit:4;stroke-opacity:1;stroke-dasharray:none;stroke-dashoffset:0;marker:none;visibility:visible;display:inline;overflow:visible;enable-background:accumulate" />
    <path
       d="m 30.428638,63.076421 c 12.4375,6.53125 12.4375,6.5 12.4375,6.5"
       id="path4063-1-4-2-3-2-2"
       style="color:#000000;fill:none;stroke:#4b4b4b;stroke-width:0.89999998;stroke-linecap:round;stroke-linejoin:round;stroke-miterlimit:4;stroke-opacity:1;stroke-dasharray:none;stroke-dashoffset:0;marker:none;visibility:visible;display:inline;overflow:visible;enable-background:accumulate" />
    <path
       d="m 34.573424,61.598635 c 12.4375,6.53125 12.4375,6.5 12.4375,6.5"
       id="path4063-1-4-2-3-2-2-1"
       style="color:#000000;fill:none;stroke:#4b4b4b;stroke-width:0.89999998;stroke-linecap:round;stroke-linejoin:round;stroke-miterlimit:4;stroke-opacity:1;stroke-dasharray:none;stroke-dashoffset:0;marker:none;visibility:visible;display:inline;overflow:visible;enable-background:accumulate" />
    <path
       d="M 49.139766,65.577373 C 47.463407,64.700625 42.303222,62.059628 38.393366,60.0039 L 5.639119,72.804137 c 2.4811354,1.299805 7.885694,4.121054 10.387867,5.37818"
       id="path4332"
       style="color:#000000;fill:none;stroke:#4b4b4b;stroke-width:0.89999998;stroke-linecap:round;stroke-linejoin:round;stroke-miterlimit:4;stroke-opacity:1;stroke-dashoffset:0;marker:none;visibility:visible;display:inline;overflow:visible;enable-background:accumulate" />
    <path
       d="m 87.504464,50.309209 c 0,0 -71.709103,27.109141 -75.837202,28.814601 -2.8839669,1.191466 -1.362574,4.740477 1.414213,3.712311 4.454883,-1.649517 75.395261,-28.814602 75.395261,-28.814602"
       id="path3973-7"
       style="color:#000000;fill:#c3c3c2;fill-opacity:1;stroke:none;stroke-width:0.89999998;marker:none;visibility:visible;display:inline;overflow:visible;enable-background:accumulate" />
    <path
       d="m 87.504464,50.309213 c 0,0 -71.709103,27.109141 -75.837202,28.814601 -2.8839668,1.191466 -1.362574,4.740477 1.414213,3.712311 4.454883,-1.649517 75.395261,-28.814602 75.395261,-28.814602"
       id="path3973"
       style="color:#000000;fill:none;stroke:#4b4b4b;stroke-width:0.89999998;stroke-linecap:round;stroke-linejoin:round;stroke-miterlimit:4;stroke-opacity:1;stroke-dasharray:none;stroke-dashoffset:0;marker:none;visibility:visible;display:inline;overflow:visible;enable-background:accumulate" />
    <path
       d="m 132.47821,80.259359 37.21386,14.432229 C 164.93436,81.473692 164.91325,81.496732 164.91325,81.496732 L 127.69939,67.064501 c 0,0 0.0211,-0.02304 4.77882,13.194858 z"
       id="path4040-7-1-3"
       style="color:#000000;fill:#c3c3c2;fill-opacity:1;stroke:none;stroke-width:0.89999998;marker:none;visibility:visible;display:inline;overflow:visible;enable-background:accumulate" />
    <path
       d="m 132.47821,80.25936 37.21386,14.432228 C 164.93436,81.473692 164.91325,81.496732 164.91325,81.496732 L 127.69939,67.064501 c 0,0 0.0211,-0.02304 4.77882,13.194859 z"
       id="path4040-8-3"
       style="color:#000000;fill:none;stroke:#4b4b4b;stroke-width:0.89999998;stroke-linecap:round;stroke-linejoin:round;stroke-miterlimit:4;stroke-opacity:1;stroke-dasharray:none;stroke-dashoffset:0;marker:none;visibility:visible;display:inline;overflow:visible;enable-background:accumulate" />
    <path
       d="M 162.3229,90.026668 C 157.56519,76.808769 157.54408,76.83181 157.54408,76.83181"
       id="path4063-1-9-4"
       style="color:#000000;fill:none;stroke:#4b4b4b;stroke-width:0.89999998;stroke-linecap:round;stroke-linejoin:round;stroke-miterlimit:4;stroke-opacity:1;stroke-dasharray:none;stroke-dashoffset:0;marker:none;visibility:visible;display:inline;overflow:visible;enable-background:accumulate" />
    <path
       d="M 158.05614,88.321663 C 153.29843,75.103765 153.27732,75.126805 153.27732,75.126805"
       id="path4063-1-4-27-1"
       style="color:#000000;fill:none;stroke:#4b4b4b;stroke-width:0.89999998;stroke-linecap:round;stroke-linejoin:round;stroke-miterlimit:4;stroke-opacity:1;stroke-dasharray:none;stroke-dashoffset:0;marker:none;visibility:visible;display:inline;overflow:visible;enable-background:accumulate" />
    <path
       d="M 153.98849,86.90816 C 149.23078,73.690261 149.20967,73.713301 149.20967,73.713301"
       id="path4063-1-4-2-9-1"
       style="color:#000000;fill:none;stroke:#4b4b4b;stroke-width:0.89999998;stroke-linecap:round;stroke-linejoin:round;stroke-miterlimit:4;stroke-opacity:1;stroke-dasharray:none;stroke-dashoffset:0;marker:none;visibility:visible;display:inline;overflow:visible;enable-background:accumulate" />
    <path
       d="M 149.92002,85.311743 C 145.16231,72.093844 145.1412,72.116885 145.1412,72.116885"
       id="path4063-1-4-2-3-5-3"
       style="color:#000000;fill:none;stroke:#4b4b4b;stroke-width:0.89999998;stroke-linecap:round;stroke-linejoin:round;stroke-miterlimit:4;stroke-opacity:1;stroke-dasharray:none;stroke-dashoffset:0;marker:none;visibility:visible;display:inline;overflow:visible;enable-background:accumulate" />
    <path
       d="M 145.82162,83.504287 C 141.06391,70.286388 141.0428,70.309429 141.0428,70.309429"
       id="path4063-1-4-2-3-2-4-8"
       style="color:#000000;fill:none;stroke:#4b4b4b;stroke-width:0.89999998;stroke-linecap:round;stroke-linejoin:round;stroke-miterlimit:4;stroke-opacity:1;stroke-dasharray:none;stroke-dashoffset:0;marker:none;visibility:visible;display:inline;overflow:visible;enable-background:accumulate" />
    <path
       d="M 141.87044,82.187802 C 137.11273,68.969903 137.09162,68.992943 137.09162,68.992943"
       id="path4063-1-4-2-3-2-2-3-7"
       style="color:#000000;fill:none;stroke:#4b4b4b;stroke-width:0.89999998;stroke-linecap:round;stroke-linejoin:round;stroke-miterlimit:4;stroke-opacity:1;stroke-dasharray:none;stroke-dashoffset:0;marker:none;visibility:visible;display:inline;overflow:visible;enable-background:accumulate" />
    <path
       d="M 137.81617,80.477245 C 133.05846,67.259347 133.03735,67.282387 133.03735,67.282387"
       id="path4063-1-4-2-3-2-2-1-1-4"
       style="color:#000000;fill:none;stroke:#4b4b4b;stroke-width:0.89999998;stroke-linecap:round;stroke-linejoin:round;stroke-miterlimit:4;stroke-opacity:1;stroke-dasharray:none;stroke-dashoffset:0;marker:none;visibility:visible;display:inline;overflow:visible;enable-background:accumulate" />
    <path
       d="m 129.76447,67.703098 c 0.64366,1.778925 2.66402,7.212202 4.15793,11.369273 l 32.79693,12.690457 c -0.9512,-2.634529 -3.02996,-8.365797 -4.02551,-10.983071"
       id="path4332-2-2"
       style="color:#000000;fill:none;stroke:#4b4b4b;stroke-width:0.89999998;stroke-linecap:round;stroke-linejoin:round;stroke-miterlimit:4;stroke-opacity:1;stroke-dashoffset:0;marker:none;visibility:visible;display:inline;overflow:visible;enable-background:accumulate" />
    <path
       d="m 141.37881,58.153085 37.1875,14.5 c -12.4375,6.53125 -12.4375,6.5 -12.4375,6.5 l -37.1875,-14.5 c 0,0 0,0.03125 12.4375,-6.5 z"
       id="path4040-7-7"
       style="color:#000000;fill:#c3c3c2;fill-opacity:1;stroke:none;stroke-width:0.89999998;marker:none;visibility:visible;display:inline;overflow:visible;enable-background:accumulate" />
    <path
       d="m 141.37881,58.153085 37.1875,14.5 c -12.4375,6.53125 -12.4375,6.5 -12.4375,6.5 l -37.1875,-14.5 c 0,0 0,0.03125 12.4375,-6.5 z"
       id="path4040-79"
       style="color:#000000;fill:none;stroke:#4b4b4b;stroke-width:0.89999998;stroke-linecap:round;stroke-linejoin:round;stroke-miterlimit:4;stroke-opacity:1;stroke-dasharray:none;stroke-dashoffset:0;marker:none;visibility:visible;display:inline;overflow:visible;enable-background:accumulate" />
    <path
       d="m 169.98158,71.114064 c -12.4375,6.53125 -12.4375,6.5 -12.4375,6.5"
       id="path4063-1-3"
       style="color:#000000;fill:none;stroke:#4b4b4b;stroke-width:0.89999998;stroke-linecap:round;stroke-linejoin:round;stroke-miterlimit:4;stroke-opacity:1;stroke-dasharray:none;stroke-dashoffset:0;marker:none;visibility:visible;display:inline;overflow:visible;enable-background:accumulate" />
    <path
       d="m 165.68388,69.488631 c -12.4375,6.53125 -12.4375,6.5 -12.4375,6.5"
       id="path4063-1-4-1"
       style="color:#000000;fill:none;stroke:#4b4b4b;stroke-width:0.89999998;stroke-linecap:round;stroke-linejoin:round;stroke-miterlimit:4;stroke-opacity:1;stroke-dasharray:none;stroke-dashoffset:0;marker:none;visibility:visible;display:inline;overflow:visible;enable-background:accumulate" />
    <path
       d="m 161.72991,67.782794 c -12.4375,6.53125 -12.4375,6.5 -12.4375,6.5"
       id="path4063-1-4-2-98"
       style="color:#000000;fill:none;stroke:#4b4b4b;stroke-width:0.89999998;stroke-linecap:round;stroke-linejoin:round;stroke-miterlimit:4;stroke-opacity:1;stroke-dasharray:none;stroke-dashoffset:0;marker:none;visibility:visible;display:inline;overflow:visible;enable-background:accumulate" />
    <path
       d="m 157.65176,66.211259 c -12.4375,6.53125 -12.4375,6.5 -12.4375,6.5"
       id="path4063-1-4-2-3-6"
       style="color:#000000;fill:none;stroke:#4b4b4b;stroke-width:0.89999998;stroke-linecap:round;stroke-linejoin:round;stroke-miterlimit:4;stroke-opacity:1;stroke-dasharray:none;stroke-dashoffset:0;marker:none;visibility:visible;display:inline;overflow:visible;enable-background:accumulate" />
    <path
       d="m 153.40897,64.775102 c -12.4375,6.53125 -12.4375,6.5 -12.4375,6.5"
       id="path4063-1-4-2-3-2-5"
       style="color:#000000;fill:none;stroke:#4b4b4b;stroke-width:0.89999998;stroke-linecap:round;stroke-linejoin:round;stroke-miterlimit:4;stroke-opacity:1;stroke-dasharray:none;stroke-dashoffset:0;marker:none;visibility:visible;display:inline;overflow:visible;enable-background:accumulate" />
    <path
       d="m 149.60642,63.076417 c -12.4375,6.53125 -12.4375,6.5 -12.4375,6.5"
       id="path4063-1-4-2-3-2-2-0"
       style="color:#000000;fill:none;stroke:#4b4b4b;stroke-width:0.89999998;stroke-linecap:round;stroke-linejoin:round;stroke-miterlimit:4;stroke-opacity:1;stroke-dasharray:none;stroke-dashoffset:0;marker:none;visibility:visible;display:inline;overflow:visible;enable-background:accumulate" />
    <path
       d="m 145.46163,61.598631 c -12.4375,6.53125 -12.4375,6.5 -12.4375,6.5"
       id="path4063-1-4-2-3-2-2-1-2"
       style="color:#000000;fill:none;stroke:#4b4b4b;stroke-width:0.89999998;stroke-linecap:round;stroke-linejoin:round;stroke-miterlimit:4;stroke-opacity:1;stroke-dasharray:none;stroke-dashoffset:0;marker:none;visibility:visible;display:inline;overflow:visible;enable-background:accumulate" />
    <path
       d="m 130.89529,65.577369 c 1.67636,-0.876748 6.83655,-3.517745 10.7464,-5.573473 l 32.75425,12.800237 c -2.48114,1.299805 -7.8857,4.121054 -10.38787,5.37818"
       id="path4332-8"
       style="color:#000000;fill:none;stroke:#4b4b4b;stroke-width:0.89999998;stroke-linecap:round;stroke-linejoin:round;stroke-miterlimit:4;stroke-opacity:1;stroke-dashoffset:0;marker:none;visibility:visible;display:inline;overflow:visible;enable-background:accumulate" />
    <path
       d="m 92.530591,50.309205 c 0,0 71.709109,27.109141 75.837209,28.814601 2.88396,1.191466 1.36257,4.740477 -1.41422,3.712311 C 162.4987,81.1866 91.558319,54.021515 91.558319,54.021515"
       id="path3973-7-6"
       style="color:#000000;fill:#c3c3c2;fill-opacity:1;stroke:none;stroke-width:0.89999998;marker:none;visibility:visible;display:inline;overflow:visible;enable-background:accumulate" />
    <path
       d="m 92.530591,50.309209 c 0,0 71.709109,27.109141 75.837209,28.814601 2.88396,1.191466 1.36257,4.740477 -1.41422,3.712311 C 162.4987,81.186604 91.558319,54.021519 91.558319,54.021519"
       id="path3973-0"
       style="color:#000000;fill:none;stroke:#4b4b4b;stroke-width:0.89999998;stroke-linecap:round;stroke-linejoin:round;stroke-miterlimit:4;stroke-opacity:1;stroke-dasharray:none;stroke-dashoffset:0;marker:none;visibility:visible;display:inline;overflow:visible;enable-background:accumulate" />
    <path
       d="m 154.206,36.797374 0.42098,-8.366915 19.50504,-9.737863 -19.92602,18.104778 z"
       id="path4538-0-0"
       style="color:#000000;fill:#e0e0df;fill-opacity:1;stroke:none;stroke-width:0.89999998;marker:none;visibility:visible;display:inline;overflow:visible;enable-background:accumulate" />
    <path
       d="M 144.88174,20.313103 174.13202,18.692594 154.206,36.797372"
       id="path4538"
       style="color:#000000;fill:none;stroke:#4b4b4b;stroke-width:0.89999998;stroke-linecap:round;stroke-linejoin:round;stroke-miterlimit:4;stroke-opacity:1;stroke-dasharray:none;stroke-dashoffset:0;marker:none;visibility:visible;display:inline;overflow:visible;enable-background:accumulate" />
  </g>
  <g
     transform="translate(-212.85712,-200.64787)"
     id="layer2"
     style="display:inline">
    <path
       d="m 309.49279,289.125 c 3.09906,18.15248 -0.33985,31.40452 -1.4375,35.125 -0.8317,2.81904 1.625,6.9375 1.625,6.9375 -3.15813,2.16629 -4.85061,5.01475 -6.78906,7.91406 -1.93846,-2.91493 -3.80281,-5.74777 -6.96094,-7.91406 0,0 2.4567,-4.11846 1.625,-6.9375 -1.09765,-3.72048 -4.53656,-16.97252 -1.4375,-35.125"
       id="path3652-4"
       style="color:#000000;fill:#c3c3c2;fill-opacity:1;stroke:none;stroke-width:0.89999998;marker:none;visibility:visible;display:inline;overflow:visible;enable-background:accumulate" />
    <path
       d="m 297.34375,290.5 c -2.69305,17.23725 0.48863,29.84105 1.53125,33.375 0.57125,1.93625 0.0263,3.86483 -0.53125,5.375 -0.34143,0.92482 -0.50221,1.15765 -0.75,1.625 2.22364,1.75727 3.88836,3.76281 5.3125,5.84375 1.3627,-2.04766 2.93572,-4.05327 5.125,-5.8125 -0.24723,-0.46458 -0.40315,-0.71676 -0.75,-1.65625 -0.55753,-1.51017 -1.1025,-3.43875 -0.53125,-5.375 1.04262,-3.53395 4.2243,-16.13775 1.53125,-33.375 l -10.9375,0 z"
       id="path3969"
       style="color:#000000;fill:#000000;fill-opacity:1;stroke:none;stroke-width:0.89999998;marker:none;visibility:visible;display:inline;overflow:visible;enable-background:accumulate" />
    <path
       d="m 306.9375,282.21875 c 0,0 -0.0755,-48.07358 0,-71.0625 -0.30776,-3.65442 -2.31146,-6.95682 -4.0625,-9.96875 -0.0708,0.11125 -4.0742,6.40151 -4.0625,9.96875 0.0755,22.98892 0,71.03125 0,71.03125"
       id="path2830-0"
       style="color:#000000;fill:#c3c3c2;fill-opacity:1;stroke:none;stroke-width:0.89999998;marker:none;visibility:visible;display:inline;overflow:visible;enable-background:accumulate" />
    <path
       d="m 302.84375,205.53125 c -0.0763,0.14878 -0.0796,0.12668 -0.15625,0.28125 -0.95343,1.92189 -1.78453,4.34445 -1.78125,5.34375 0.0733,22.32498 0.004,66.2506 0,68.9375 l 3.9375,0.0312 c -0.004,-2.68021 -0.0723,-46.38912 0,-68.78125 -0.1615,-1.9177 -0.99859,-3.87196 -2,-5.8125 z"
       transform="translate(0,2.25)"
       id="path3654"
       style="color:#000000;fill:#aaa9a9;fill-opacity:1;stroke:none;stroke-width:0.89999998;marker:none;visibility:visible;display:inline;overflow:visible;enable-background:accumulate" />
    <path
       d="m 306.9375,282.21875 c 0,0 -0.0755,-48.07358 0,-71.0625 -0.30776,-3.65442 -2.31146,-6.95682 -4.0625,-9.96875 -0.0708,0.11125 -4.0742,6.40151 -4.0625,9.96875 0.0755,22.98892 0,71.03125 0,71.03125"
       id="path2830"
       style="color:#000000;fill:none;stroke:#4b4b4b;stroke-width:0.89999998;stroke-linecap:round;stroke-linejoin:round;stroke-miterlimit:4;stroke-opacity:1;stroke-dasharray:none;marker:none;visibility:visible;display:inline;overflow:visible;enable-background:accumulate" />
    <path
       d="m 309.49279,289.125 c 3.09906,18.15248 -0.33985,31.40452 -1.4375,35.125 -0.8317,2.81904 1.625,6.9375 1.625,6.9375 -3.15813,2.16629 -4.85061,5.01475 -6.78906,7.91406 -1.93846,-2.91493 -3.80281,-5.74777 -6.96094,-7.91406 0,0 2.4567,-4.11846 1.625,-6.9375 -1.09765,-3.72048 -4.53656,-16.97252 -1.4375,-35.125"
       id="path3652"
       style="color:#000000;fill:none;stroke:#4b4b4b;stroke-width:0.89999998;stroke-linecap:round;stroke-linejoin:round;stroke-miterlimit:4;stroke-opacity:1;stroke-dasharray:none;stroke-dashoffset:0;marker:none;visibility:visible;display:inline;overflow:visible;enable-background:accumulate" />
    <path
       d="m 84.057319,91.566604 11.75565,0"
       transform="translate(212.85712,200.64787)"
       id="path3747"
       style="color:#000000;fill:none;stroke:#c4c4c2;stroke-width:0.89999998;stroke-linecap:round;stroke-linejoin:round;stroke-opacity:1;marker:none;visibility:visible;display:inline;overflow:visible;enable-background:accumulate" />
    <path
       d="m 296.38411,296.19195 12.9047,0"
       id="path3747-8"
       style="color:#000000;fill:none;stroke:#c4c4c2;stroke-width:0.89999998;stroke-linecap:round;stroke-linejoin:round;stroke-opacity:1;marker:none;visibility:visible;display:inline;overflow:visible;enable-background:accumulate" />
    <path
       d="m 296.07475,300.16943 13.43503,0"
       id="path3747-8-8"
       style="color:#000000;fill:none;stroke:#c4c4c2;stroke-width:0.89999998;stroke-linecap:round;stroke-linejoin:round;stroke-opacity:1;marker:none;visibility:visible;display:inline;overflow:visible;enable-background:accumulate" />
    <path
       d="m 296.16314,304.14691 13.56761,0"
       id="path3747-8-8-2"
       style="color:#000000;fill:none;stroke:#c4c4c2;stroke-width:0.89999998;stroke-linecap:round;stroke-linejoin:round;stroke-opacity:1;marker:none;visibility:visible;display:inline;overflow:visible;enable-background:accumulate" />
    <path
       d="m 296.07475,308.21277 13.47922,0"
       id="path3747-8-8-2-4"
       style="color:#000000;fill:none;stroke:#c4c4c2;stroke-width:0.89999998;stroke-linecap:round;stroke-linejoin:round;stroke-opacity:1;marker:none;visibility:visible;display:inline;overflow:visible;enable-background:accumulate" />
    <path
       d="m 296.38411,312.19025 12.9047,0"
       id="path3747-8-8-2-4-5"
       style="color:#000000;fill:none;stroke:#c4c4c2;stroke-width:0.89999998;stroke-linecap:round;stroke-linejoin:round;stroke-opacity:1;marker:none;visibility:visible;display:inline;overflow:visible;enable-background:accumulate" />
    <path
       d="m 296.91444,316.16773 11.75565,0"
       id="path3747-8-8-2-4-5-5"
       style="color:#000000;fill:none;stroke:#c4c4c2;stroke-width:0.89999998;stroke-linecap:round;stroke-linejoin:round;stroke-opacity:1;marker:none;visibility:visible;display:inline;overflow:visible;enable-background:accumulate" />
    <path
       d="m 297.53315,320.14521 10.47403,0"
       id="path3747-8-8-2-4-5-5-1"
       style="color:#000000;fill:none;stroke:#c4c4c2;stroke-width:0.89999998;stroke-linecap:round;stroke-linejoin:round;stroke-opacity:1;marker:none;visibility:visible;display:inline;overflow:visible;enable-background:accumulate" />
    <path
       d="m 298.32865,324.21107 8.92723,0"
       id="path3747-8-8-2-4-5-5-1-7"
       style="color:#000000;fill:none;stroke:#c4c4c2;stroke-width:0.89999998;stroke-linecap:round;stroke-linejoin:round;stroke-opacity:1;marker:none;visibility:visible;display:inline;overflow:visible;enable-background:accumulate" />
    <path
       d="m 302.875,208.21875 c -0.12711,0.32702 -0.30274,0.66102 -0.40625,0.96875 -0.30937,0.91972 -0.4694,1.77162 -0.46875,1.96875 0.0722,21.97756 0.006,65.36183 0,69.27788 l 1.75,0.0312 c -0.006,-3.90589 -0.0712,-47.07894 0,-69.12163 -0.0958,-0.98333 -0.43683,-2.04677 -0.875,-3.125 l 0,5e-5 z"
       transform="translate(0,1.5645077)"
       id="path4733"
       style="color:#000000;fill:#999897;fill-opacity:1;stroke:none;stroke-width:0.89999998;marker:none;visibility:visible;display:inline;overflow:visible;enable-background:accumulate" />
    <path
       d="m 280.3125,281.09375 0,9.0625 c 15.40727,-1.52714 30.42464,-1.41831 45.125,0 l 0,-9.0625 c -15.40727,1.52714 -30.42464,1.41831 -45.125,0 z"
       id="path3626-4"
       style="color:#000000;fill:#c3c3c2;fill-opacity:1;stroke:none;stroke-width:0.89999998;marker:none;visibility:visible;display:inline;overflow:visible;enable-background:accumulate" />
    <path
       d="m 280.3125,281.09375 0,9.0625 c 15.40727,-1.52714 30.42464,-1.41831 45.125,0 l 0,-9.0625 c -15.40727,1.52714 -30.42464,1.41831 -45.125,0 z"
       id="path3626"
       style="color:#000000;fill:none;stroke:#4b4b4b;stroke-width:0.89999998;stroke-linecap:round;stroke-linejoin:round;stroke-miterlimit:4;stroke-opacity:1;stroke-dasharray:none;stroke-dashoffset:0;marker:none;visibility:visible;display:inline;overflow:visible;enable-background:accumulate" />
  </g>
</svg>
